<svg xmlns="http://www.w3.org/2000/svg" viewBox="0 0 105.26 81.92"><defs><style>.cls-1{fill:#351e16;fill-rule:evenodd;}</style></defs><title>cat-1</title><g id="Layer_2" data-name="Layer 2"><g id="OBJECTS"><path class="cls-1" d="M60.38,4.93A8.66,8.66,0,0,1,62.91,6c.41.25.76-.37.37-.63a8.85,8.85,0,0,0-2.69-1.22A3.62,3.62,0,0,0,58,4.08a.22.22,0,0,0,0,.37A7.28,7.28,0,0,0,60.38,4.93Z"/><path class="cls-1" d="M56.89,6.67a6.65,6.65,0,0,0,1.61.22c.64.09,1.27.2,1.91.32.46.08.66-.61.19-.71-.63-.13-1.26-.27-1.89-.37a3.74,3.74,0,0,0-1.82,0A.3.3,0,0,0,56.89,6.67Z"/><path class="cls-1" d="M72.82,2.44a8.73,8.73,0,0,1-.62-1.17A8.53,8.53,0,0,0,71.8.13a.26.26,0,0,0-.45,0c-.39.83.41,2,.87,2.66C72.47,3.17,73.07,2.82,72.82,2.44Z"/><path class="cls-1" d="M84.55,5.22c.51-.62,1-1.23,1.61-1.8a8.56,8.56,0,0,1,1.12-1A2.38,2.38,0,0,0,88,1.78a.21.21,0,0,0-.19-.32c-.72-.05-1.39.65-1.88,1.1a17,17,0,0,0-1.9,2.16C83.78,5.07,84.26,5.57,84.55,5.22Z"/><path class="cls-1" d="M87.31,6.69A24.82,24.82,0,0,0,90.6,4.44c.19-.15,0-.51-.24-.42A25.75,25.75,0,0,0,87,6.08.35.35,0,0,0,87.31,6.69Z"/><path class="cls-1" d="M91.6,11.24a3.28,3.28,0,0,0,1.45-.45.35.35,0,0,0,.18-.32.35.35,0,0,0-.37-.38,1.39,1.39,0,0,0-.51.2,2.37,2.37,0,0,1-.75.19C91.11,10.51,91.11,11.27,91.6,11.24Z"/><path class="cls-1" d="M61,75.2l.24.23s.06,0,0,0L61,75.16S60.93,75.18,61,75.2Z"/><path class="cls-1" d="M91.82,32.71a26.94,26.94,0,0,0-11.4-4,.56.56,0,0,0,0-.12c1.86-2.36,4-4.46,6-6.76a18.44,18.44,0,0,0,2.09-3,5.9,5.9,0,0,0,1-1.79.18.18,0,0,0-.08-.21c.18-.28.4-.56.56-.86a.4.4,0,0,0,.3-.67C87,11.84,83.61,8.64,80.82,4.8a.36.36,0,0,0-.45-.11s0,0,0,0c0-.35-.65-.27-.62.09a59.12,59.12,0,0,0,1.08,7.63c-.72-.73-1.46-1.44-2.11-2.16a23.12,23.12,0,0,0-4.22-4.05A1.09,1.09,0,0,0,74.57,6a.13.13,0,0,0,0-.12h.15a14.87,14.87,0,0,0,3.58-.1l.09,0H79l.09.07c.27.22.75-.07.52-.4,0,0-.07-.12-.11-.18a.2.2,0,0,0,0-.26.41.41,0,0,0-.38-.49h-.85a.38.38,0,0,0-.33.19.77.77,0,0,0,0,.17c-1.28,0-2.59.18-3.87.14-1.84-.07-3.67-.24-5.51-.24a.34.34,0,0,0-.34.26.4.4,0,0,0-.15.09,38.45,38.45,0,0,0-4,5.11c-.85,1.12-1.7,2.24-2.58,3.34A12.07,12.07,0,0,1,60.29,15c-.2,0-.41.16-.33.39a1.86,1.86,0,0,0,.1.2.22.22,0,0,0-.06.26c1,3,4,5.72,6.17,7.9a37.85,37.85,0,0,0,5.14,4.55c-2.27-.51-5.14.26-7.73,1.57a33.15,33.15,0,0,0-14-10.53c-13.92-5.64-30.85-1.68-38.78,11.12a.21.21,0,0,0-.18.06C4.63,36.65,3.45,46.71,4.85,54.8A31.65,31.65,0,0,0,20.07,77c11.71,7.11,27.09,5.78,37.54-2.19A24.84,24.84,0,0,0,62.13,78c12.3,6.94,27.12,4.6,35.11-7.16S104.27,41,91.82,32.71ZM79.54,26.77c-.4.32-.82.61-1.25.89a15.37,15.37,0,0,0,.93-2.83c.43-1,.81-2,1.29-3a.25.25,0,0,0-.43-.26l0,.06a52.3,52.3,0,0,1,1.74-5.45h0A.33.33,0,0,0,82,16c.81,1.56,1.67,3.11,2.57,4.62-.4.53-.8,1.06-1.21,1.57a43.55,43.55,0,0,0-2.65,3.69A5.45,5.45,0,0,0,79.54,26.77Zm-2.05.51-.31,1.15c-.45,0-.89,0-1.34,0q-.24-2.81-.58-5.6c2.21-1.74,3.79-4.1,5.5-6.32a60.29,60.29,0,0,0-3,9.54c-.13.34-.27.68-.37,1A.23.23,0,0,0,77.49,27.28Zm-2.93-5.11c0,.09,0,.19,0,.28a.36.36,0,0,0,0,.09.33.33,0,0,0-.1-.17,71.84,71.84,0,0,1-6.09-6c3.41,1.06,7.75.85,11.37.22A36.17,36.17,0,0,1,75.09,22C74.91,21.8,74.54,21.85,74.56,22.17ZM75,28.42c-.26,0-.53,0-.79,0A32.77,32.77,0,0,1,70,22.81c-1-1.74-1.86-3.56-2.72-5.37a.13.13,0,0,0,0-.09c-.09-.17-.17-.34-.25-.52l.62.05a.31.31,0,0,0,.24-.06C69.73,19,71.57,21.38,74,23a.38.38,0,0,0,.55-.24.69.69,0,0,0,.07.15A36.62,36.62,0,0,0,75,28.42Zm8.63-4.61c-.74.79-1.49,1.57-2.21,2.35.94-1.41,2-2.77,3-4.1l.58-.71.11.18-1.55,1.84A.3.3,0,0,0,83.66,23.81Zm4.29-6c-.12.22-.25.44-.38.66l0,.09c-.29.4-.57.8-.88,1.17s-.64.77-1,1.16a1.62,1.62,0,0,0-.1-.18A20.46,20.46,0,0,0,88.31,17C88.21,17.26,88.07,17.54,88,17.82Zm.54-1.38a.2.2,0,0,0-.33-.07,26.64,26.64,0,0,0-3,3.54l-2.27-4a41.77,41.77,0,0,0,5.7.27C88.54,16.29,88.51,16.36,88.49,16.44Zm-8-10.91c2.3,3.8,5.83,6.82,8.88,10l0,.05a.35.35,0,0,0-.32-.18,59.05,59.05,0,0,1-6.52-.31,1.72,1.72,0,0,0-.07-.21c.2,0,.38-.2.24-.4A9.89,9.89,0,0,0,82,13.6,48.57,48.57,0,0,1,80.49,5.53Zm-2.32,5.22a31.83,31.83,0,0,0,3,3.37.35.35,0,0,0,0,.2l.33.63,0,.05a.35.35,0,0,0-.11,0,.3.3,0,0,0-.38.07c-.16.16-.3.33-.45.5-4.16.63-8.89,1-12.89-.21,1-1.14,1.92-2.34,2.83-3.56a57.85,57.85,0,0,0,3.68-5.06A51.78,51.78,0,0,1,78.17,10.75ZM68.82,5.59c1.79.06,3.57.19,5.36.28l-.06,0,0,0a.3.3,0,0,0-.37.46,36,36,0,0,0-3,4q-1.86,2.53-3.86,5a.29.29,0,0,0-.16,0C67.32,12.05,68.38,8.88,68.82,5.59Zm-5.46,6.78c1.55-2,3-4.07,4.64-6-.63,3.15-1.6,6.23-2.11,9.41v0a.5.5,0,0,1,0,.12H64.49c-.85,0-2.83.18-3.68-.47C61.79,14.88,63,12.81,63.36,12.37Zm-2.6,3.88a5.57,5.57,0,0,0,1.75.36c1.15.12,2.3.12,3.46.16a11.94,11.94,0,0,0-1.27,4.75A17.17,17.17,0,0,1,60.76,16.25Zm5.86,7.08c-.44-.4-.9-.83-1.36-1.27.34-.94.44-2,.7-3,.16-.59.35-1.17.55-1.74.13.3.27.6.39.89-.14,1.7-.54,3.5-.16,5.13a.13.13,0,0,0,.25,0,15.83,15.83,0,0,0,.29-4.27l.27.55a.14.14,0,0,0-.14.15,16.85,16.85,0,0,1,.09,2.24,7.42,7.42,0,0,0,.11,2.21Zm1.21,1.13a.16.16,0,0,0,.15-.12,5.69,5.69,0,0,0,.07-2.29,16.94,16.94,0,0,0-.25-1.86c.2.43.42.85.63,1.27a.24.24,0,0,0-.19.24l0,1.52a2.45,2.45,0,0,0,.14,1.4.19.19,0,0,0,.33,0,2.06,2.06,0,0,0,.15-1.18l0-1.24c.16.31.33.61.49.91a.29.29,0,0,0-.14.24c0,.55,0,1.1,0,1.64a2.87,2.87,0,0,0,.14.81C68.81,25.36,68.31,24.91,67.83,24.46Zm1.89,1.69a.2.2,0,0,0,.16-.1c.19-.32,0-.71,0-1.06s-.06-.66-.07-1l.28.5a.26.26,0,0,0-.18.26,3,3,0,0,0,.63,2,.19.19,0,0,0,.31-.08,1.31,1.31,0,0,0-.11-.78,5.1,5.1,0,0,1-.17-.61,16.21,16.21,0,0,0,1.55,2.17.37.37,0,0,0-.35.22C71,27.22,70.37,26.7,69.72,26.15ZM54.63,75.77l-.36.22-.34.19a34.74,34.74,0,0,1-25.6,3,.18.18,0,0,0-.09-.14c-7.35-3.72-13.08-8.27-17.72-15.17C4.11,54.35,7,45.48,9.23,35.26a.17.17,0,0,0-.33-.1c-3.72,9.27-4.83,18.71,0,27.68A37.07,37.07,0,0,0,23.63,77.61c-.59-.25-1.17-.51-1.75-.79C6.19,69.2.93,48.32,9.2,33.6a.45.45,0,0,0,.83.16c6.83-13.5,21.33-18.18,35.54-14.64A33.89,33.89,0,0,1,63.08,30.17a20.36,20.36,0,0,0-1.82,1.09l-.23.08a4.24,4.24,0,0,0-.54-.59.36.36,0,0,0-.59.15c-.18-.16-.37-.31-.51-.45a.39.39,0,0,0-.65.31c-.32-.27-.63-.55-1-.8a.31.31,0,0,0-.46.08c-.45-.45-.91-.89-1.39-1.31a.24.24,0,0,0-.39.26c-9.22-7.89-26.74-8.21-35.5.32a22.5,22.5,0,0,0-7.89,23.57.29.29,0,0,0-.28.35c1.92,10.19,9.93,20.6,21,21.28a.25.25,0,0,0,.27-.19,25.26,25.26,0,0,0,10.22.85,5.66,5.66,0,0,0,3.25.84c.13,0,.21-.19.07-.27a7.5,7.5,0,0,0-1.81-.58c-.16,0-.31-.1-.46-.15.57-.09,1.13-.21,1.7-.34a.22.22,0,0,0,.09.28c.87.46,2.78,1.06,3.39-.1a.21.21,0,0,0-.18-.31c-.43,0-.81.22-1.24.27a3.52,3.52,0,0,1-1.61-.24c.59-.15,1.18-.33,1.77-.52a.28.28,0,0,0,.16.14,4.74,4.74,0,0,0,1.34.25A1.93,1.93,0,0,0,51.19,74a.13.13,0,0,0-.06-.25c-.62,0-1.23,0-1.84,0a.43.43,0,0,0,.22-.6A19.73,19.73,0,0,0,52,71.88l-1.18,1c-.22.19.07.56.31.4a21.7,21.7,0,0,0,7.29-7.16A28.75,28.75,0,0,0,63.86,50.7c.06.11.19.17.29.06a9.37,9.37,0,0,0,1.53-3.42c.12-.33-.39-.46-.52-.15a19,19,0,0,0-1.28,3.27,29.86,29.86,0,0,0-.43-6.74.12.12,0,0,0,.12-.07A11.15,11.15,0,0,0,64,41.28c0-.19-.25-.27-.28-.08-.13.71-.31,1.42-.37,2.14a29.39,29.39,0,0,0-.81-3.2,4,4,0,0,0,.29-1.85s0,0,0,0l.2-.15c.55,1.14,1,2.31,1.51,3.5-.14-.06-.32,0-.35.14a8.9,8.9,0,0,0-.46,3.05.14.14,0,0,0,.26,0,8.26,8.26,0,0,0,.68-2.88l.24.65c-.11,0-.25,0-.27.14-.16,1.05-.37,2.09-.5,3.14a.15.15,0,0,0,.28.08,11.08,11.08,0,0,0,.64-3c.15.42.32.84.47,1.27.06.17.36.16.34,0a17.22,17.22,0,0,0-2.15-6.6A19,19,0,0,1,66.79,36c3.39,7.66,2.42,16.8-.09,24.62a27.32,27.32,0,0,1-5.42,9.63.28.28,0,0,0-.34-.06,23.36,23.36,0,0,0-3.11,3.1A19.76,19.76,0,0,1,54.63,75.77ZM58,34.62a21,21,0,0,0-4,4.28,19.36,19.36,0,0,1,4.75-5.54c-.28.29-.55.58-.77.86A.3.3,0,0,0,58,34.62Zm-37,32.67a27.22,27.22,0,0,0,4.47,3.36,25.58,25.58,0,0,0,2.34,1.42,24.08,24.08,0,0,1-8.16-5.26,24.86,24.86,0,0,1-5.44-8.52A31.55,31.55,0,0,0,20.94,67.29ZM17.82,32.78l.12,0c-5.43,7.08-7,15.41-3.67,23.88A22.72,22.72,0,0,1,17.82,32.78ZM26.36,70a33.06,33.06,0,0,1-8-7.78c-8.88-11.83-4.92-24.51,5-34a.31.31,0,0,0,.09-.34c10-6.54,26.05-4.38,33.74,4.17.27.3.52.63.77,1-3.44,2.63-5.71,7.27-7.53,10.83C47.27,50,47,58.51,50.57,64.56a26.5,26.5,0,0,0,2.75,5.28l-.53.42C45.14,75.45,34.63,74.62,26.36,70Zm29.78-4.26a.25.25,0,0,0-.12.22,3.48,3.48,0,0,0,.2,1.37l-.12.13c-.05-.25-.11-.49-.15-.72-.11-.65-.21-1.29-.3-1.94C55.8,65.07,56,65.38,56.14,65.69Zm5.27-26.56A29.48,29.48,0,0,1,58.47,64.4c-.28.44-.57.86-.88,1.26C53.19,57.18,55.49,46.45,61.41,39.13Zm5.74-3.31c9.43-3.81,21.68-.55,26.91,8.35,4.9,8.34,2.76,19.56-3.91,26.22C82.54,78,69.44,78.08,61.67,71a28.8,28.8,0,0,0,4.65-6.88C71,54.45,71,44.28,67.15,35.82ZM97.94,68.19C91,81.45,76.54,83.74,63.65,77.9a22.68,22.68,0,0,1-5.5-3.56c.2-.16.4-.34.59-.51.11.55.37,1.12.88,1.25a.21.21,0,0,0,.26-.2c0-.54-.43-1-.57-1.53l.28-.26c.21.68.55,1.64,1.21,1.68a.17.17,0,0,0,.17-.12,1.41,1.41,0,0,0,0-.2,11.18,11.18,0,0,0,2.07,2c.09.07.2-.08.12-.15a25.45,25.45,0,0,1-1.9-2,2.06,2.06,0,0,0,.41.32.19.19,0,0,0,.27-.09s0,.06,0,.09c.84.75,1.7,1.48,2.59,2.17a6.46,6.46,0,0,0,2.75,1.6.15.15,0,0,0,.13-.23,7.43,7.43,0,0,0-2-1.48c-1.09-.75-2.16-1.54-3.18-2.37a.23.23,0,0,0-.35.08,8.81,8.81,0,0,0-1.34-2.28l.15-.14a22.43,22.43,0,0,0,3.38,2.71c.24.15.49-.19.3-.39L64,73.83A20.1,20.1,0,0,0,68.66,76a.18.18,0,0,0,0,.29,6.57,6.57,0,0,0,4.85,1.9c.13,0,.23-.21.08-.28-1.54-.71-3.23-.65-4.56-1.82a20.72,20.72,0,0,0,3.4.7l0,0a9.56,9.56,0,0,0,3.89,1.61c.16,0,.19-.21.08-.29a17.13,17.13,0,0,0-2.72-1.23,22.13,22.13,0,0,0,3.9-.09.18.18,0,0,0,.11.21,6.44,6.44,0,0,0,4.08.4.1.1,0,0,0,0-.2c-1.2-.37-2.47-.15-3.68-.45a23.34,23.34,0,0,0,8-2.54,4.13,4.13,0,0,0,3.49-.86c.06,0,0-.15-.06-.12a8.75,8.75,0,0,1-2.77.62c.65-.37,1.28-.78,1.9-1.22a8.83,8.83,0,0,0,4.25-2.09c.07-.07,0-.2-.09-.17A30.43,30.43,0,0,0,90,71.6l.09-.07A19.25,19.25,0,0,0,92,69.63a7.91,7.91,0,0,0,2.55-2.16.12.12,0,0,0-.16-.17,12.15,12.15,0,0,0-1.28,1c5.35-7.13,5.72-17.58,1.21-25.23-6.13-10.43-23.71-13-32.63-4.86a.24.24,0,0,0-.15.06,24.88,24.88,0,0,0-6.62,22c-.16-.5-.33-1-.46-1.51-1.92-7.64,1.09-14.8,6.23-20.37a.23.23,0,0,0-.33-.33c-7.51,6.83-8.73,17.63-4.84,26.36-.19-.1-.49,0-.47.26.06.66.09,1.32.18,2A4.59,4.59,0,0,0,55.49,68c-.1.1-.19.21-.29.3-.36.28-.71.59-1.05.86l-.31.24a27.71,27.71,0,0,1-2.47-4.55.27.27,0,0,0,0-.23c-.17-.36-.33-.72-.49-1.07a2.49,2.49,0,0,0-.11-.29c-2.26-6.5-1.19-12.95,1.26-19a.18.18,0,0,0,.23-.16c.09-.4.2-.78.32-1.15q.6-1.35,1.26-2.67c3.72-3.89,7.52-7.51,12.63-9.6a21.94,21.94,0,0,1,6.25-1.49l0,0s0,0,0,.07a13.71,13.71,0,0,0-3.19.74c-.43.16-.25.85.19.69,3.59-1.28,6.89-.14,10.5.1a.21.21,0,0,0,.11-.39,8.84,8.84,0,0,0-2.13-.84.42.42,0,0,0,0-.33h.23l.48.05a.41.41,0,0,0,.65.17l.1-.07A39.17,39.17,0,0,1,86.48,31C102.11,36.24,104.83,55,97.94,68.19Z"/><path class="cls-1" d="M65.35,74.71c-.29-.2-.55.27-.27.47,1.53,1.11,3.19,2.68,5.06,3.15a.09.09,0,0,0,.09-.15C68.88,76.78,66.94,75.82,65.35,74.71Z"/><path class="cls-1" d="M77.17,77.49a12.74,12.74,0,0,1-1.79-.55c-.13,0-.23.18-.1.24,1.07.45,2.43,1.32,3.63.92a.1.1,0,0,0,0-.18A12.63,12.63,0,0,0,77.17,77.49Z"/><path class="cls-1" d="M81.5,76.49a.11.11,0,0,0-.06.21,3.5,3.5,0,0,0,2.68,0c.09-.05,0-.18-.06-.19A16.83,16.83,0,0,1,81.5,76.49Z"/><path class="cls-1" d="M85.82,75.38c-.5.05-1,.06-1.52.07a.2.2,0,0,0,0,.4,5.21,5.21,0,0,0,2.88-.34.11.11,0,0,0-.05-.2A5.24,5.24,0,0,0,85.82,75.38Z"/><path class="cls-1" d="M93.25,40.36a.05.05,0,0,0,0-.1A.05.05,0,0,0,93.25,40.36Z"/><polygon class="cls-1" points="94.66 42.9 94.67 42.9 94.67 42.43 94.66 42.43 94.66 42.9"/><path class="cls-1" d="M94.51,41.58a27,27,0,0,1,2.73,7.05c.08.27.55.23.51-.07a15.68,15.68,0,0,0-2.93-7.16C94.69,41.22,94.4,41.38,94.51,41.58Z"/><path class="cls-1" d="M22.18,70.61c-.22-.26-.67.09-.47.36,1.67,2.26,4.08,4.52,6.92,5.13.26.06.45-.32.19-.45A19.56,19.56,0,0,1,22.18,70.61Z"/><path class="cls-1" d="M28.6,74a.26.26,0,0,0-.37.36,10.61,10.61,0,0,0,4.62,3.09c.17,0,.35-.19.19-.32C31.61,76,30,75.27,28.6,74Z"/><path class="cls-1" d="M31.91,74.52c-.29-.18-.53.25-.26.45,1.47,1.06,3,2.67,4.83,3.09.23,0,.43-.24.24-.41A36.73,36.73,0,0,0,31.91,74.52Z"/><path class="cls-1" d="M36.9,76.17c-.33-.1-.46.39-.14.51a12.81,12.81,0,0,0,2.27.74c.17,0,.29-.2.12-.29A12.38,12.38,0,0,0,36.9,76.17Z"/><path class="cls-1" d="M17.31,30c2.53-2.72,6-5.46,9.71-6.25,0,0,0-.07,0-.07a15.92,15.92,0,0,0-9.94,6.12C17,30,17.19,30.13,17.31,30Z"/><path class="cls-1" d="M49.38,24a27.42,27.42,0,0,1,9.77,5.19c.12.11.34,0,.24-.19-2.07-3.28-6.37-4.49-9.88-5.49A.25.25,0,0,0,49.38,24Z"/><path class="cls-1" d="M63.24,39a7.51,7.51,0,0,1-.09,1.25s.05.06.06,0A3.24,3.24,0,0,0,63.4,39C63.41,38.89,63.24,38.89,63.24,39Z"/><path class="cls-1" d="M63.58,40.07c-.12.67-.12,1.34-.2,2,0,.09.14.11.16,0,.16-.65.24-1.28.36-1.94C63.94,40,63.62,39.87,63.58,40.07Z"/><path class="cls-1" d="M64.92,44.54a28.45,28.45,0,0,0-1,3.23.21.21,0,0,0,.38.16,10.24,10.24,0,0,0,1-3.27A.23.23,0,0,0,64.92,44.54Z"/><path class="cls-1" d="M64.88,50.49v-.14a0,0,0,0,0,0,0v.14A0,0,0,0,0,64.88,50.49Z"/><path class="cls-1" d="M53.1,60.86a.16.16,0,0,0-.31,0c-.12,1.12-.6,2.8.19,3.75a.15.15,0,0,0,.25-.06,4.58,4.58,0,0,0,0-1.61C53.21,62.25,53.17,61.56,53.1,60.86Z"/><path class="cls-1" d="M53.69,66.22a.11.11,0,0,0,.2,0,7.07,7.07,0,0,0,0-3.39c0-.26-.43-.27-.41,0C53.56,63.91,53.28,65.2,53.69,66.22Z"/><path class="cls-1" d="M55.27,67.87A11.48,11.48,0,0,0,55,65.93a12.93,12.93,0,0,1-.13-2.4c0-.31-.43-.29-.46,0-.17,1.39-.33,3.21.46,4.46A.22.22,0,0,0,55.27,67.87Z"/><path class="cls-1" d="M.89,51.66a18.81,18.81,0,0,0,1.82,9.46c.12.23.46.07.41-.18-.7-3.1-1.69-6.08-1.94-9.28A.15.15,0,0,0,.89,51.66Z"/><path class="cls-1" d="M.55,60.93c-.12-.33-.65-.19-.53.15a6.84,6.84,0,0,0,2,2.69.21.21,0,0,0,.29-.29A7.69,7.69,0,0,1,.55,60.93Z"/><path class="cls-1" d="M101.38,41.32c.12.26.53.07.45-.2-.94-3.51-3.73-6-6.08-8.66-.17-.19-.43.08-.27.27A39.14,39.14,0,0,1,101.38,41.32Z"/><path class="cls-1" d="M102.62,36.63c-.14-.34-.69-.2-.56.15A47.65,47.65,0,0,1,104.68,49a.28.28,0,0,0,.55,0C105.47,44.79,104.22,40.52,102.62,36.63Z"/><path class="cls-1" d="M13.92,22.06A33.34,33.34,0,0,0,18,19.38c.24-.18.11-.62-.22-.52a13.82,13.82,0,0,0-4.29,2.64C13.16,21.76,13.58,22.25,13.92,22.06Z"/><path class="cls-1" d="M99.49,72.53a23.87,23.87,0,0,1-4.09,6.21.3.3,0,0,0,.42.42,14,14,0,0,0,4.14-6.5C100.05,72.36,99.6,72.24,99.49,72.53Z"/></g></g></svg>