<svg xmlns="http://www.w3.org/2000/svg" viewBox="0 0 105.27 95"><defs><style>.cls-1{fill:#fcb356;}.cls-2{fill:#5bb591;}.cls-3{fill:#a27332;}.cls-4{fill:#407860;}</style></defs><title>cat-4</title><g id="Layer_2" data-name="Layer 2"><g id="OBJECTS"><path class="cls-1" d="M19.74,52.78s-3.4,15.66-.85,27.75c0,0,20.77,13.27,30.64,14.47,0,0,49.36-10.73,54.3-18.56,0,0,3.23-15.83,0-25.53,0,0-18.89-11.83-25.36-13.15S22.47,50.74,19.74,52.78Z"/><path class="cls-2" d="M103.83,50.91S84.94,39.08,78.47,37.76s-56,13-58.73,15c0,0,21.28,15.15,32,16.68C51.74,69.46,93.62,59.76,103.83,50.91Z"/><path class="cls-3" d="M51.74,69.46c-.13,1.07-.3,2.13-.42,3.19s-.29,2.12-.42,3.19c-.24,2.12-.49,4.24-.68,6.36s-.35,4.25-.48,6.38c-.07,1.06-.12,2.13-.13,3.2s0,2.14-.08,3.22a50.57,50.57,0,0,1-.31-12.89c.22-2.15.5-4.28.93-6.39A51.7,51.7,0,0,1,51.74,69.46Z"/><path class="cls-4" d="M78.47,37.76C78.47,30.4,67.91,0,67.91,0,49.36.15,6.13,13.63,6.13,13.63,7.49,21.8,19.74,52.78,19.74,52.78,22.47,50.74,72,36.44,78.47,37.76Z"/><path class="cls-1" d="M0,22.32S10.21,53.12,11.23,55l8.51-2.22S7.49,21.8,6.13,13.63C6.13,13.63.17,19.42,0,22.32Z"/><path class="cls-2" d="M8.1,21S52.26,8.87,61.79,7.17L67.91,0C49.36.15,6.13,13.63,6.13,13.63A61,61,0,0,0,8.1,21Z"/><path class="cls-3" d="M71.33,38.4c3.42-.61,6-.88,7.14-.64C78.47,30.4,67.91,0,67.91,0L61.79,7.17Z"/><path class="cls-4" d="M41.17,45.82,41.75,66a37.62,37.62,0,0,0,10,3.48s8.76-2,19.25-5.07h0Z"/></g></g></svg>