<svg xmlns="http://www.w3.org/2000/svg" xmlns:xlink="http://www.w3.org/1999/xlink" viewBox="0 0 80.55 76.86"><defs><style>.cls-1{fill:url(#linear-gradient);}.cls-2{mask:url(#mask);}.cls-3{fill:#fff;}</style><linearGradient id="linear-gradient" x1="41.06" y1="72.99" x2="41.06" y2="41.04" gradientUnits="userSpaceOnUse"><stop offset="0"/><stop offset="0.09" stop-color="#070707"/><stop offset="0.22" stop-color="#1a1a1a"/><stop offset="0.37" stop-color="#3a3a3a"/><stop offset="0.54" stop-color="#676767"/><stop offset="0.73" stop-color="#a0a0a0"/><stop offset="0.93" stop-color="#e4e4e4"/><stop offset="1" stop-color="#fff"/></linearGradient><mask id="mask" x="-3.94" y="54.86" width="90" height="24.67" maskUnits="userSpaceOnUse"><rect class="cls-1" x="-3.94" y="54.86" width="90" height="24.67"/></mask></defs><title>cat-2</title><g id="Layer_2" data-name="Layer 2"><g id="Layer_1-2" data-name="Layer 1"><g class="cls-2"><path class="cls-3" d="M75.49,59.45A2.57,2.57,0,0,1,78,56.69a2.76,2.76,0,0,1,.64.1v0a2.71,2.71,0,0,1,1.89,2.64V76.86h-3.1C78.3,72.59,76,63.72,75.49,59.45ZM41.56,64.18A20.32,20.32,0,0,0,22.73,76.86H60.4A20.33,20.33,0,0,0,41.56,64.18ZM21.36,76.86a21.61,21.61,0,0,1,20.2-14h.16c.24,0,.47,0,.71,0,.48,0,1,0,1.44.08l.68.11c.49.07,1,.13,1.46.23.21,0,.41.11.61.16.49.11,1,.23,1.46.38l.56.2c.47.17,1,.33,1.42.53l.52.25c.46.21.91.42,1.36.67.17.09.33.2.5.3.43.25.86.5,1.27.78.17.11.32.25.48.36.4.29.8.57,1.17.88.17.14.32.3.49.44.35.32.71.62,1,1,.17.17.32.35.48.52.31.34.62.66.91,1s.31.42.47.63.52.68.76,1,.31.5.46.75.43.68.62,1,.28.59.43.88.33.66.48,1,.18.49.27.74H69.3a28.77,28.77,0,0,0-55.47,0Zm-14.27,0L7.7,59.32a2.66,2.66,0,0,0-2.53-2.76,2.2,2.2,0,0,0-.36,0v0a2.67,2.67,0,0,0-2.16,2.7l.61,17.54Z"/></g><path class="cls-3" d="M41.56,0A28.77,28.77,0,1,0,70.34,28.77,28.77,28.77,0,0,0,41.56,0Zm21,23.51c.07.31.17.6.23.91s.14.9.21,1.35c0,.27.09.53.12.8.07.72.11,1.46.11,2.2s0,1.48-.11,2.21c0,.27-.09.53-.12.79-.07.45-.12.91-.21,1.35s-.16.6-.23.91-.18.78-.3,1.16-.24.65-.36,1-.23.68-.36,1-.32.67-.48,1-.27.6-.43.88-.41.69-.62,1-.29.51-.46.75-.5.69-.76,1-.31.43-.47.63-.6.68-.91,1c-.16.17-.31.36-.48.52-.33.34-.69.65-1,1-.17.14-.32.3-.49.44-.37.31-.77.59-1.17.88-.16.12-.31.25-.48.36-.41.28-.84.53-1.27.78l-.5.31c-.45.24-.9.45-1.36.66l-.52.25c-.47.2-1,.36-1.42.53l-.56.2c-.48.15-1,.27-1.46.39-.2,0-.4.11-.61.15-.48.1-1,.17-1.46.23l-.68.11c-.47,0-1,.06-1.44.08-.24,0-.47,0-.71,0h-.16a21.62,21.62,0,0,1,0-43.24h.16l.57,0c.54,0,1.07,0,1.59.1a5.39,5.39,0,0,1,.56.08c.53.07,1.06.14,1.58.25l.5.13c.53.13,1,.25,1.56.41l.47.17c.51.18,1,.35,1.51.56l.45.22c.48.22,1,.44,1.43.7.15.08.29.18.44.27.45.26.9.52,1.33.81.15.11.29.23.44.33.41.3.83.59,1.21.92.16.13.3.27.45.41.37.32.74.63,1.08,1,.16.16.3.34.46.51.31.33.63.66.93,1,.16.2.3.41.45.61.27.35.54.69.78,1.05s.3.5.45.74.44.68.63,1,.28.58.42.88.34.66.49,1,.24.67.36,1,.26.64.36,1S62.42,23.13,62.52,23.51Zm-.61,5.26A20.35,20.35,0,1,1,41.56,8.43,20.34,20.34,0,0,1,61.91,28.77ZM80.55,6.31V53.84a2.72,2.72,0,0,1-1.89,2.65h0a2.31,2.31,0,0,1-.64.1,2.57,2.57,0,0,1-2.53-2.76c.49-4.53,3.12-14.27,1.77-18.16-.77-2.22-3.6-6.24-3.6-12.9,0-12.41,2.9-16.84,4.92-17.88l.08,0A1.42,1.42,0,0,1,80.55,6.31ZM9.19,5a126.18,126.18,0,0,1,1.16,14.75c0,4.58-.94,4.53-3.65,5.61L7.7,54a2.66,2.66,0,0,1-2.53,2.75,2.2,2.2,0,0,1-.36,0h0A2.68,2.68,0,0,1,2.65,54l1-28.59C.93,24.31,0,24.36,0,19.78A124.64,124.64,0,0,1,1.15,5h.64L1.93,21.2H3.26L3.59,5h.63L4.51,21.2H5.84L6.16,5h.68l.3,16.17H8.47L8.58,5Z"/></g></g></svg>