<svg id="deseret" xmlns="http://www.w3.org/2000/svg" xmlns:xlink="http://www.w3.org/1999/xlink" width="72" height="61.6" viewBox="0 0 72 61.6">
  <defs>
    <linearGradient id="linear-gradient" x1="1.097" y1="-1.628" x2="0" y2="1.213" gradientUnits="objectBoundingBox">
      <stop offset="0" stop-color="#e9aa17"/>
      <stop offset="1" stop-color="#fff"/>
    </linearGradient>
  </defs>
  <g id="Group_25" data-name="Group 25" transform="translate(10.863 37.208)">
    <path id="Path_15" data-name="Path 15" d="M106.468,152.066H74.9c-5.511,0-9.064-3.367-9.064-8.621L64.6,130.111a1.175,1.175,0,0,1,1.185-1.212,1.238,1.238,0,0,1,1.391,1.033l1.236,13.38v.09c0,1.527.464,6.421,6.489,6.421h31.571c4.017,0,4.893-2.065,5.871-6.87.1-.539,1.339-8.621,2.009-14.278a1.228,1.228,0,0,1,1.442-.988,1.138,1.138,0,0,1,1.133,1.257c-.721,5.837-2.009,14.278-2.06,14.368v.045C114.039,147.442,113.06,152.066,106.468,152.066Z" transform="translate(-64.593 -127.675)" fill="url(#linear-gradient)"/>
  </g>
  <g id="Group_27" data-name="Group 27" transform="translate(0 29.497)">
    <g id="Group_26" data-name="Group 26">
      <path id="Path_16" data-name="Path 16" d="M100.2,120.872a16.156,16.156,0,0,1-7.725-1.8,4.579,4.579,0,0,0-2.627-.674,4.839,4.839,0,0,0-2.627.674,17.513,17.513,0,0,1-15.451,0,4.579,4.579,0,0,0-2.627-.674,4.839,4.839,0,0,0-2.627.674,16.156,16.156,0,0,1-7.725,1.8,16.156,16.156,0,0,1-7.725-1.8,4.479,4.479,0,0,0-2.627-.674c-2.73,0-4.944-1.751-4.944-3.951s2.215-3.951,4.944-3.951a16.156,16.156,0,0,1,7.725,1.8,4.479,4.479,0,0,0,2.627.673,4.839,4.839,0,0,0,2.627-.673,17.513,17.513,0,0,1,15.451,0,4.579,4.579,0,0,0,2.627.673,4.839,4.839,0,0,0,2.627-.673,17.513,17.513,0,0,1,15.451,0,4.579,4.579,0,0,0,2.627.673,4.839,4.839,0,0,0,2.627-.673,16.156,16.156,0,0,1,7.725-1.8c2.73,0,4.944,1.751,4.944,3.951s-2.215,3.951-4.944,3.951a4.839,4.839,0,0,0-2.627.674A16.712,16.712,0,0,1,100.2,120.872Zm-10.352-4.759a7.633,7.633,0,0,1,3.863.943,14.556,14.556,0,0,0,12.979,0,7.331,7.331,0,0,1,3.863-.943c1.288,0,2.369-.763,2.369-1.706s-1.082-1.706-2.369-1.706a13.458,13.458,0,0,0-6.489,1.527,7.4,7.4,0,0,1-3.914.943,7.634,7.634,0,0,1-3.863-.943,14.556,14.556,0,0,0-12.979,0,7.331,7.331,0,0,1-3.863.943,7.633,7.633,0,0,1-3.863-.943,14.556,14.556,0,0,0-12.979,0,7.331,7.331,0,0,1-3.863.943,7.634,7.634,0,0,1-3.863-.943,13.458,13.458,0,0,0-6.489-1.527c-1.288,0-2.369.763-2.369,1.706s1.082,1.706,2.369,1.706a7.633,7.633,0,0,1,3.863.943,14.556,14.556,0,0,0,12.979,0,7.331,7.331,0,0,1,3.863-.943,7.2,7.2,0,0,1,3.863.943,14.556,14.556,0,0,0,12.979,0A7.993,7.993,0,0,1,89.852,116.112Z" transform="translate(-43.5 -110.5)" fill="url(#linear-gradient)"/>
    </g>
  </g>
  <g id="Group_28" data-name="Group 28" transform="translate(26.026 40.542)">
    <path id="Path_17" data-name="Path 17" d="M104.832,152.88h-.309c-2.73.224-6.232-2.559-8.549-6.825-2.678-4.939-2.575-9.519.258-10.686a3.628,3.628,0,0,1,1.391-.269c2.215,0,4.79,1.8,6.9,4.714,2.112-2.918,4.687-4.714,6.9-4.714a3.446,3.446,0,0,1,1.391.269c2.833,1.167,2.936,5.792.258,10.686C110.806,150.141,107.51,152.88,104.832,152.88Zm-.309-2.29h.258c1.391,0,4.069-2.11,5.923-5.568,2.163-3.951,2.009-7.274.979-7.678a.74.74,0,0,0-.309-.045c-1.339,0-3.863,1.976-5.768,5.253a1.356,1.356,0,0,1-1.133.629,1.259,1.259,0,0,1-1.133-.629c-1.906-3.278-4.429-5.253-5.768-5.253a.74.74,0,0,0-.309.045c-1.03.449-1.185,3.727.979,7.678,1.854,3.412,4.532,5.568,5.923,5.568h.361Z" transform="translate(-94.033 -135.1)" fill="url(#linear-gradient)"/>
  </g>
  <g id="Group_29" data-name="Group 29" transform="translate(9.726 0)">
    <path id="Path_18" data-name="Path 18" d="M113.379,77.355a1.693,1.693,0,0,1-.464-.09,1.089,1.089,0,0,1-.721-1.437,15.643,15.643,0,0,0,1.133-4.849c-.309-3.727-2.936-6.645-5.974-6.51a3.312,3.312,0,0,0-1.288.269,1.482,1.482,0,0,1-1.236-.09,1.15,1.15,0,0,1-.567-.988V62.583c-.258-3.412-2.472-6.2-4.79-6.106a1.275,1.275,0,0,1-1.288-.763c-.979-2.559-6.386-4.759-8.343-5.388h-.051a45.98,45.98,0,0,1-6.747-3.188,1.5,1.5,0,0,0-1.03.045.863.863,0,0,0-.309.494l1.751,2.829a.584.584,0,0,1,.1.269,3.174,3.174,0,0,1-.67,3.008c-1.391,1.616-4.172,1.8-4.481,1.8a4.707,4.707,0,0,0-4.481,4.984,4.105,4.105,0,0,0,.1.673.964.964,0,0,1-.258.9,1.736,1.736,0,0,1-.979.449h-.1a6.808,6.808,0,0,0-4.429,1.886,5.106,5.106,0,0,0-1.6,4.131,5.256,5.256,0,0,0,.721,2.245.94.94,0,0,1,0,1.033,1.347,1.347,0,0,1-.979.584,1.711,1.711,0,0,0-1.494,1.931,2.9,2.9,0,0,0,.258,1.033.983.983,0,0,1,.206,1.257h0c-.052.045-.052.135-.1.18a1.2,1.2,0,0,1-.927.449,1.383,1.383,0,0,1-1.185-.449,4.319,4.319,0,0,1-.773-2.335,4.074,4.074,0,0,1,2.215-3.861,8.125,8.125,0,0,1-.412-1.931,7.226,7.226,0,0,1,2.266-5.792,9.168,9.168,0,0,1,4.944-2.469,7.092,7.092,0,0,1,6.9-7.139,4.722,4.722,0,0,0,2.575-.9,1.117,1.117,0,0,0,.206-1.033L79.182,48.35a1.075,1.075,0,0,1-.155-.539,3.163,3.163,0,0,1,1.442-2.469,4.324,4.324,0,0,1,3.451-.359,2.718,2.718,0,0,1,.361.135,43.928,43.928,0,0,0,6.438,3.053c.927.269,7.468,2.469,9.528,6.061,3.4.4,6.18,3.727,6.541,8.037.155,0,.258-.045.412-.045,4.429-.225,8.292,3.682,8.652,8.621a11.566,11.566,0,0,1-.618,3.861,1,1,0,0,1-.258,1.212c-.1.18-.258.449-.412.763A1.241,1.241,0,0,1,113.379,77.355Z" transform="translate(-62.384 -44.805)" fill="url(#linear-gradient)"/>
  </g>
  <g id="Group_30" data-name="Group 30" transform="translate(15.948 22.522)">
    <path id="Path_19" data-name="Path 19" d="M77.368,100.369a1.321,1.321,0,0,1-1.185-.673l-1.6-3.143a1.053,1.053,0,0,1,.67-1.482,1.338,1.338,0,0,1,1.7.584l1.6,3.143a1.053,1.053,0,0,1-.67,1.482A1.72,1.72,0,0,1,77.368,100.369Z" transform="translate(-74.466 -94.966)" fill="url(#linear-gradient)"/>
  </g>
  <g id="Group_31" data-name="Group 31" transform="translate(22.455 16.341)">
    <path id="Path_20" data-name="Path 20" d="M88.388,87.127A1.2,1.2,0,0,1,87.1,86V82.323a1.3,1.3,0,0,1,2.575,0V86A1.234,1.234,0,0,1,88.388,87.127Z" transform="translate(-87.1 -81.2)" fill="url(#linear-gradient)"/>
  </g>
  <g id="Group_32" data-name="Group 32" transform="translate(29.677 20.437)">
    <path id="Path_21" data-name="Path 21" d="M102.4,94.668a1.312,1.312,0,0,1-.721-.18,1.1,1.1,0,0,1-.361-1.571l1.648-2.11a1.5,1.5,0,0,1,1.8-.314,1.1,1.1,0,0,1,.361,1.571l-1.648,2.11A1.412,1.412,0,0,1,102.4,94.668Z" transform="translate(-101.123 -90.323)" fill="url(#linear-gradient)"/>
  </g>
  <g id="Group_33" data-name="Group 33" transform="translate(35.784 7.846)">
    <path id="Path_22" data-name="Path 22" d="M116.08,67.408a1.386,1.386,0,0,1-1.133-.584l-1.8-2.874a1.052,1.052,0,0,1,.515-1.527,1.39,1.39,0,0,1,1.751.449l1.8,2.874a1.052,1.052,0,0,1-.515,1.527A1.536,1.536,0,0,1,116.08,67.408Z" transform="translate(-112.98 -62.28)" fill="url(#linear-gradient)"/>
  </g>
  <g id="Group_34" data-name="Group 34" transform="translate(33.167 10.729)">
    <path id="Path_23" data-name="Path 23" d="M109.188,73.863a1.2,1.2,0,0,1-1.288-1.122V69.822a1.3,1.3,0,0,1,2.575,0v2.918A1.234,1.234,0,0,1,109.188,73.863Z" transform="translate(-107.9 -68.7)" fill="url(#linear-gradient)"/>
  </g>
  <g id="Group_35" data-name="Group 35" transform="translate(53.052 21.464)">
    <path id="Path_24" data-name="Path 24" d="M147.792,97.5a2.068,2.068,0,0,1-.515-.09,1.073,1.073,0,0,1-.67-1.482l1.339-2.649a1.385,1.385,0,0,1,1.7-.584,1.073,1.073,0,0,1,.67,1.482l-1.339,2.649A1.321,1.321,0,0,1,147.792,97.5Z" transform="translate(-146.509 -92.609)" fill="url(#linear-gradient)"/>
  </g>
  <g id="Group_36" data-name="Group 36" transform="translate(42.53 22.528)">
    <path id="Path_25" data-name="Path 25" d="M129.335,100.377a1.386,1.386,0,0,1-1.133-.584l-1.957-3.143a1.052,1.052,0,0,1,.515-1.527,1.39,1.39,0,0,1,1.751.449l1.957,3.143a1.052,1.052,0,0,1-.515,1.527A1.535,1.535,0,0,1,129.335,100.377Z" transform="translate(-126.08 -94.98)" fill="url(#linear-gradient)"/>
  </g>
  <g id="Group_37" data-name="Group 37" transform="translate(44.494 15.978)">
    <path id="Path_26" data-name="Path 26" d="M134.171,84.841a1.377,1.377,0,0,1-.824-.269l-2.987-2.2a1,1,0,0,1-.155-1.571,1.38,1.38,0,0,1,1.8-.135l2.987,2.2a1,1,0,0,1,.155,1.571A1.35,1.35,0,0,1,134.171,84.841Z" transform="translate(-129.892 -80.393)" fill="url(#linear-gradient)"/>
  </g>
</svg>
