<?xml version="1.0" ?><!DOCTYPE svg  PUBLIC '-//W3C//DTD SVG 1.1//EN'  'http://www.w3.org/Graphics/SVG/1.1/DTD/svg11.dtd'><svg enable-background="new 0 0 226.8 226.8" id="Layer_1" version="1.1" viewBox="0 0 226.8 226.8" xml:space="preserve" xmlns="http://www.w3.org/2000/svg" xmlns:xlink="http://www.w3.org/1999/xlink"><g><g><path d="M145.9,182H84.6c-10.7,0-17.6-7.5-17.6-19.2l-2.4-29.7c-0.1-1.4,0.9-2.6,2.3-2.7c1.4-0.1,2.6,0.9,2.7,2.3l2.4,29.8    c0,0.1,0,0.1,0,0.2c0,3.4,0.9,14.3,12.6,14.3h61.3c7.8,0,9.5-4.6,11.4-15.3c0.2-1.2,2.6-19.2,3.9-31.8c0.1-1.4,1.4-2.4,2.8-2.2    c1.4,0.1,2.4,1.4,2.2,2.8c-1.4,13-3.9,31.8-4,32c0,0,0,0.1,0,0.1C160.6,171.7,158.7,182,145.9,182z"/></g><g><g><path d="M153.6,133.6c-7.7,0-12.1-2.4-15-4c-2.1-1.2-2.8-1.5-5.1-1.5c-2.4,0-3,0.4-5.1,1.5c-2.9,1.6-7.3,4-15,4     c-7.7,0-12.1-2.4-15-4c-2.1-1.2-2.8-1.5-5.1-1.5c-2.4,0-3,0.4-5.1,1.5c-2.9,1.6-7.3,4-15,4c-7.7,0-12.1-2.4-15-4     c-2.1-1.2-2.7-1.5-5.1-1.5c-5.3,0-9.6-3.9-9.6-8.8s4.3-8.8,9.6-8.8c7.7,0,12.1,2.4,15,4c2.1,1.2,2.7,1.5,5.1,1.5     c2.4,0,3-0.4,5.1-1.5c2.9-1.6,7.3-4,15-4c7.7,0,12.1,2.4,15,4c2.1,1.2,2.8,1.5,5.1,1.5c2.4,0,3-0.4,5.1-1.5c2.9-1.6,7.3-4,15-4     c7.7,0,12.1,2.4,15,4c2.1,1.2,2.8,1.5,5.1,1.5c2.4,0,3-0.4,5.1-1.5c2.9-1.6,7.3-4,15-4c5.3,0,9.6,3.9,9.6,8.8s-4.3,8.8-9.6,8.8     c-2.4,0-3,0.4-5.1,1.5C165.7,131.1,161.3,133.6,153.6,133.6z M133.5,123c3.7,0,5.2,0.9,7.5,2.1c2.8,1.5,6.2,3.4,12.6,3.4     c6.4,0,9.8-1.9,12.6-3.4c2.3-1.3,3.9-2.1,7.5-2.1c2.5,0,4.6-1.7,4.6-3.8c0-2.1-2.1-3.8-4.6-3.8c-6.4,0-9.8,1.9-12.6,3.4     c-2.3,1.3-3.9,2.1-7.6,2.1c-3.7,0-5.2-0.9-7.5-2.1c-2.8-1.5-6.2-3.4-12.6-3.4c-6.4,0-9.8,1.9-12.6,3.4c-2.3,1.3-3.9,2.1-7.5,2.1     c-3.7,0-5.2-0.9-7.5-2.1c-2.8-1.5-6.2-3.4-12.6-3.4c-6.4,0-9.8,1.9-12.6,3.4c-2.3,1.3-3.9,2.1-7.5,2.1c-3.7,0-5.2-0.9-7.5-2.1     c-2.8-1.5-6.2-3.4-12.6-3.4c-2.5,0-4.6,1.7-4.6,3.8c0,2.1,2.1,3.8,4.6,3.8c3.7,0,5.2,0.9,7.5,2.1c2.8,1.5,6.2,3.4,12.6,3.4     c6.4,0,9.8-1.9,12.6-3.4c2.3-1.3,3.9-2.1,7.5-2.1c3.7,0,5.2,0.8,7.5,2.1c2.8,1.5,6.2,3.4,12.6,3.4c6.4,0,9.8-1.9,12.6-3.4     C128.3,123.9,129.8,123,133.5,123z"/></g></g><g><path d="M115,174.7L115,174.7c-0.2,0-0.4,0-0.6,0c-5.3,0.5-12.1-5.7-16.6-15.2c-5.2-11-5-21.2,0.5-23.8c0.8-0.4,1.8-0.6,2.7-0.6    c4.3,0,9.3,4,13.4,10.5c4.1-6.5,9.1-10.5,13.4-10.5c1,0,1.9,0.2,2.7,0.6c5.5,2.6,5.7,12.9,0.5,23.8    C126.6,168.6,120.2,174.7,115,174.7z M114.4,169.6c0.1,0,0.2,0,0.3,0c0.1,0,0.2,0,0.2,0c2.7,0,7.9-4.7,11.5-12.4    c4.2-8.8,3.9-16.2,1.9-17.1c-0.2-0.1-0.4-0.1-0.6-0.1c-2.6,0-7.5,4.4-11.2,11.7c-0.4,0.8-1.3,1.4-2.2,1.4s-1.8-0.5-2.2-1.4    c-3.7-7.3-8.6-11.7-11.2-11.7c-0.2,0-0.4,0-0.6,0.1c-2,1-2.3,8.3,1.9,17.1c3.6,7.6,8.8,12.4,11.5,12.4c0.1,0,0.2,0,0.2,0    C114.1,169.6,114.3,169.6,114.4,169.6z"/></g><g><path d="M161.4,117.3c-0.3,0-0.6-0.1-0.9-0.2c-1.2-0.5-1.9-1.9-1.4-3.2c1-2.8,2.3-8.2,2.2-10.8c-0.6-8.3-5.7-14.8-11.6-14.5    c-0.8,0-1.7,0.2-2.5,0.6c-0.8,0.3-1.7,0.3-2.4-0.2c-0.7-0.5-1.1-1.3-1.1-2.2c0-0.9,0-1.7,0-2.4c-0.5-7.6-4.8-13.8-9.3-13.6    c-1.1,0.1-2.1-0.6-2.5-1.7c-1.9-5.7-12.4-10.6-16.2-12c0,0-0.1,0-0.1,0c-6-2.5-11.6-6.1-13.1-7.1c-0.9-0.2-1.6-0.2-2,0.1    c-0.3,0.2-0.5,0.7-0.6,1.1l3.4,6.3c0.1,0.2,0.2,0.4,0.2,0.6c0.7,3.2-0.3,5.4-1.3,6.7c-2.7,3.6-8.1,4-8.7,4    c-5.2,0.4-9.1,5.4-8.7,11.1c0,0.4,0.1,0.9,0.2,1.5c0.1,0.7,0,1.5-0.5,2s-1.1,0.9-1.9,1c0,0-0.1,0-0.2,0c-3.3,0.2-6.4,1.7-8.6,4.2    c-2.2,2.5-3.4,5.8-3.1,9.2c0.1,1.7,0.6,3.4,1.4,5c0.4,0.7,0.4,1.6,0,2.3s-1.1,1.2-1.9,1.3c-1.8,0.2-3.1,2.1-2.9,4.3    c0.1,1.1,0.3,1.9,0.5,2.3c0.7,0.7,0.9,1.9,0.4,2.8c0,0,0,0,0,0c0,0,0,0,0,0c0,0,0,0,0,0l0,0c0,0,0,0,0,0v0    c-0.1,0.1-0.1,0.3-0.2,0.4c-0.4,0.6-1.1,1-1.8,1c-0.9,0.1-1.8-0.3-2.3-1c-1.1-1.6-1.4-3.7-1.5-5.2c-0.2-3.6,1.5-6.9,4.3-8.6    c-0.4-1.4-0.7-2.8-0.8-4.3c-0.3-4.8,1.2-9.3,4.4-12.9c2.6-2.9,5.9-4.8,9.6-5.5c-0.3-8.3,5.6-15.3,13.4-15.9c1-0.1,3.9-0.6,5-2    c0.3-0.4,0.6-1,0.4-2.3L95,52.7c-0.2-0.4-0.3-0.8-0.3-1.2c0-0.4,0.2-3.6,2.8-5.5c1.2-0.9,3.3-1.7,6.7-0.8c0.3,0.1,0.5,0.2,0.7,0.3    c0.1,0,6.1,4.2,12.5,6.8c1.8,0.6,14.5,5.5,18.5,13.5c6.6,0.9,12,8.3,12.7,17.9c0.3,0,0.5-0.1,0.8-0.1c8.6-0.5,16.1,8.2,16.8,19.2    c0.2,2.5-0.5,5.9-1.2,8.6c0.4,0.9,0.2,2-0.5,2.7c-0.2,0.4-0.5,1-0.8,1.7C163.3,116.8,162.4,117.3,161.4,117.3z"/></g><g><path d="M80.1,107c-1,0-1.9-0.6-2.3-1.5l-3.1-7c-0.6-1.3,0-2.7,1.3-3.3c1.3-0.6,2.7,0,3.3,1.3l3.1,7c0.6,1.3,0,2.7-1.3,3.3    C80.8,106.9,80.5,107,80.1,107z"/></g><g><path d="M89.6,94.4c-1.4,0-2.5-1.1-2.5-2.5v-8.2c0-1.4,1.1-2.5,2.5-2.5s2.5,1.1,2.5,2.5v8.2C92.1,93.3,90.9,94.4,89.6,94.4z"/></g><g><path d="M103.6,100c-0.5,0-1-0.1-1.4-0.4c-1.1-0.8-1.4-2.3-0.7-3.5l3.2-4.7c0.8-1.1,2.3-1.4,3.5-0.7c1.1,0.8,1.4,2.3,0.7,3.5    l-3.2,4.7C105.2,99.6,104.4,100,103.6,100z"/></g><g><path d="M119,73.7c-0.9,0-1.7-0.5-2.2-1.3l-3.5-6.4c-0.7-1.2-0.2-2.7,1-3.4c1.2-0.7,2.7-0.2,3.4,1l3.5,6.4c0.7,1.2,0.2,2.7-1,3.4    C119.8,73.6,119.4,73.7,119,73.7z"/></g><g><path d="M110.4,80.2c-1.4,0-2.5-1.1-2.5-2.5v-6.5c0-1.4,1.1-2.5,2.5-2.5s2.5,1.1,2.5,2.5v6.5C112.9,79.1,111.7,80.2,110.4,80.2z"/></g><g><path d="M149,103.5c-0.3,0-0.7-0.1-1-0.2c-1.3-0.5-1.8-2-1.3-3.3l2.6-5.9c0.6-1.3,2-1.8,3.3-1.3c1.3,0.5,1.8,2,1.3,3.3l-2.6,5.9    C150.9,102.9,150,103.5,149,103.5z"/></g><g><path d="M132.4,107c-0.9,0-1.7-0.5-2.2-1.3l-3.8-7c-0.7-1.2-0.2-2.7,1-3.4c1.2-0.7,2.7-0.2,3.4,1l3.8,7c0.7,1.2,0.2,2.7-1,3.4    C133.2,106.9,132.8,107,132.4,107z"/></g><g><path d="M138.2,90.3c-0.6,0-1.1-0.2-1.6-0.6l-5.8-4.9c-1.1-0.9-1.2-2.5-0.3-3.5c0.9-1.1,2.5-1.2,3.5-0.3l5.8,4.9    c1.1,0.9,1.2,2.5,0.3,3.5C139.6,90,138.9,90.3,138.2,90.3z"/></g></g></svg>