<svg id="drink" xmlns="http://www.w3.org/2000/svg" xmlns:xlink="http://www.w3.org/1999/xlink" width="46" height="62" viewBox="0 0 46 62">
  <defs>
    <linearGradient id="linear-gradient" x1="1.276" x2="0.087" y2="5.483" gradientUnits="objectBoundingBox">
      <stop offset="0" stop-color="#fffaee"/>
      <stop offset="1" stop-color="#ce576f"/>
    </linearGradient>
  </defs>
  <g id="Group_22" data-name="Group 22">
    <g id="Group_15" data-name="Group 15" transform="translate(0 19)">
      <path id="Path_11" data-name="Path 11" d="M52,27H12a2.737,2.737,0,0,1-3-3V23a2.737,2.737,0,0,1,3-3H52a2.737,2.737,0,0,1,3,3v1A2.737,2.737,0,0,1,52,27ZM12,22c-.8,0-1,.2-1,1v1c0,.8.2,1,1,1H52c.8,0,1-.2,1-1V23c0-.8-.2-1-1-1Z" transform="translate(-9 -20)" fill="url(#linear-gradient)"/>
    </g>
    <g id="Group_16" data-name="Group 16" transform="translate(4 24.8)">
      <path id="Path_12" data-name="Path 12" d="M43,63H21a1.92,1.92,0,0,1-2-1.9L13,26.2l2-.3L21,61H43v-.2l6-35,2,.3L45,61A1.941,1.941,0,0,1,43,63Z" transform="translate(-13 -25.8)" fill="url(#linear-gradient)"/>
    </g>
    <g id="Group_17" data-name="Group 17" transform="translate(3)">
      <path id="Path_13" data-name="Path 13" d="M52,21H50a18,18,0,0,0-36,0H12a20,20,0,0,1,40,0Z" transform="translate(-12 -1)" fill="url(#linear-gradient)"/>
    </g>
    <g id="Group_18" data-name="Group 18" transform="translate(32.082 0.621)">
      <rect id="Rectangle_12" data-name="Rectangle 12" width="20.6" height="2" transform="translate(0 18.985) rotate(-67.163)" fill="url(#linear-gradient)"/>
    </g>
    <g id="Group_19" data-name="Group 19" transform="translate(7.637 27.063)">
      <rect id="Rectangle_13" data-name="Rectangle 13" width="34.2" height="2" transform="matrix(0.936, -0.351, 0.351, 0.936, 0, 12.004)" fill="url(#linear-gradient)"/>
    </g>
    <g id="Group_20" data-name="Group 20" transform="translate(9.696 45.037)">
      <rect id="Rectangle_14" data-name="Rectangle 14" width="28.2" height="2" transform="translate(0 8.012) rotate(-16.505)" fill="url(#linear-gradient)"/>
    </g>
    <g id="Group_21" data-name="Group 21" transform="translate(9.011 28.819)">
      <rect id="Rectangle_15" data-name="Rectangle 15" width="2" height="12.2" transform="translate(0 0.329) rotate(-9.462)" fill="url(#linear-gradient)"/>
    </g>
  </g>
  <g id="Group_23" data-name="Group 23" transform="translate(8 6)">
    <path id="Path_14" data-name="Path 14" d="M19,18.2l-2-.4c1.1-5.6,4.5-9.7,8.7-10.8l.5,2C22.7,9.8,19.9,13.4,19,18.2Z" transform="translate(-17 -7)" fill="url(#linear-gradient)"/>
  </g>
</svg>
