<svg xmlns="http://www.w3.org/2000/svg" width="12.73" height="14.828" viewBox="0 0 12.73 14.828">
  <path id="iconfinder_star-half-o_1608396" d="M73.1,40.643l1.966-2.336-2.724-.486-.5-.093-.23-.561L70.39,34.158v9l.451.29,2.433,1.57L72.815,41.7l-.092-.617Zm3.458-2.448L73.779,41.5l.658,4.672a.87.87,0,0,1-.046.481.275.275,0,0,1-.26.173.6.6,0,0,1-.306-.112L70.39,44.511l-3.435,2.205a.6.6,0,0,1-.306.112.275.275,0,0,1-.26-.173.871.871,0,0,1-.046-.481L67,41.5l-2.785-3.308a.623.623,0,0,1-.176-.556.465.465,0,0,1,.413-.322l3.841-.682,1.721-4.251Q70.168,32,70.39,32t.375.383l1.721,4.251,3.841.682a.465.465,0,0,1,.413.322A.616.616,0,0,1,76.556,38.195Z" transform="translate(-64.024 -32)" fill="#f1c40f"/>
</svg>
