<svg id="meat" xmlns="http://www.w3.org/2000/svg" xmlns:xlink="http://www.w3.org/1999/xlink" width="72.384" height="47.091" viewBox="0 0 72.384 47.091">
  <defs>
    <linearGradient id="linear-gradient" x1="0.569" y1="0.765" x2="0.5" y2="1" gradientUnits="objectBoundingBox">
      <stop offset="0" stop-color="#fff"/>
      <stop offset="1" stop-color="#f5a4a4"/>
    </linearGradient>
  </defs>
  <path id="Path_7" data-name="Path 7" d="M77.134,29.76c.007-3.746-1.946-7.338-5.423-9.976-10.968-7.8-31.017-9.5-48.152,2.4L9.155,33.2a10.294,10.294,0,0,0-4.4,8.133v7.848c0,6.352,6.727,11.5,15.03,11.506.494,0,.994-.019,1.495-.057a16.227,16.227,0,0,0,11.041-5.068,14.578,14.578,0,0,1,10.961-4.485c.244,0,.489,0,.723.013l13.707.581a21.993,21.993,0,0,0,13.671-3.836c3.675-2.66,5.757-6.36,5.757-10.23ZM10.668,34.353,25.034,23.366a44.533,44.533,0,0,1,25.389-8.134,34.585,34.585,0,0,1,19.8,5.73c4.77,3.649,6.1,9.169,3.352,13.88S64.562,42.478,57.826,42.2l-13.72-.582c-.279-.009-.55-.014-.831-.014-5.12,0-9.9,1.951-12.74,5.211-2.727,3.13-7.542,4.8-12.419,4.315S9.151,48.074,7.569,44.512s-.38-7.5,3.1-10.159Zm59.56,12.053a19.335,19.335,0,0,1-12.4,3.629l-13.715-.578c-.28-.01-.553-.015-.833-.015-5.12,0-9.9,1.953-12.74,5.213-3.154,3.62-9.036,5.235-14.48,3.974s-9.168-5.1-9.168-9.449V47.25c2.712,3.468,7.605,5.592,12.889,5.6.5,0,1-.019,1.5-.057a16.227,16.227,0,0,0,11.04-5.068,14.578,14.578,0,0,1,10.961-4.485q.367,0,.723.012l13.708.58c7.18.3,13.932-2.621,17.29-7.484v1.261a11.123,11.123,0,0,1-4.769,8.8Z" transform="translate(-4.75 -13.594)" fill="url(#linear-gradient)"/>
  <path id="Path_8" data-name="Path 8" d="M80.516,84.992l-4.281-.206a.937.937,0,0,0-1.029.8.9.9,0,0,0,.922.9l4.281.206h.056a.929.929,0,0,0,1-.828.913.913,0,0,0-.95-.874Z" transform="translate(-31.781 -51.584)" fill="url(#linear-gradient)"/>
  <path id="Path_9" data-name="Path 9" d="M14.115,51.977a13.426,13.426,0,0,0,9.259,2.609A12.28,12.28,0,0,0,31.8,50.594c3.149-3.734,8.46-5.975,14.146-5.97.308,0,.6.005.934.017l13.838.6a17.368,17.368,0,0,0,11.348-3.423c5.815-4.582,5.822-12.013.017-16.6A32.2,32.2,0,0,0,53.206,19.6a42.137,42.137,0,0,0-24.613,8.138L14.116,39.154c-3.241,2.555-4.246,6.384-2.559,9.744a9.058,9.058,0,0,0,2.558,3.079Zm1.529-11.621L30.08,28.967A39.618,39.618,0,0,1,53.206,21.3a29.693,29.693,0,0,1,17.38,5.145c4.937,3.929,4.917,10.266-.044,14.175a14.89,14.89,0,0,1-9.7,2.926l-13.848-.606c-.376-.013-.706-.019-1.043-.019-6.408-.006-12.393,2.52-15.942,6.728a9.974,9.974,0,0,1-6.845,3.242,10.905,10.905,0,0,1-7.52-2.119,6.329,6.329,0,0,1,0-10.417Z" transform="translate(-7.4 -16.676)" fill="url(#linear-gradient)"/>
  <path id="Path_10" data-name="Path 10" d="M88.045,41.99a4.077,4.077,0,0,0,4.326-3.77,4.368,4.368,0,0,0-8.653,0A4.082,4.082,0,0,0,88.045,41.99Zm0-5.837a2.087,2.087,0,1,1-2.373,2.067,2.236,2.236,0,0,1,2.373-2.067Z" transform="translate(-34.857 -24.78)" fill="url(#linear-gradient)"/>
</svg>
