<svg id="iconfinder_04-Tuna_4885263" xmlns="http://www.w3.org/2000/svg" xmlns:xlink="http://www.w3.org/1999/xlink" width="89.624" height="49.619" viewBox="0 0 89.624 49.619">
  <defs>
    <linearGradient id="linear-gradient" x1="0.056" y1="0.886" x2="0.582" y2="0.408" gradientUnits="objectBoundingBox">
      <stop offset="0" stop-color="#fff"/>
      <stop offset="0.036" stop-color="#4874c3"/>
      <stop offset="1" stop-color="#fff"/>
    </linearGradient>
  </defs>
  <circle id="Ellipse_1" data-name="Ellipse 1" cx="1.778" cy="1.778" r="1.778" transform="translate(9.792 24.711)" fill="url(#linear-gradient)"/>
  <path id="Path_5" data-name="Path 5" d="M89.841,47.342a.724.724,0,0,0,.017-1.39,15.839,15.839,0,0,0-19.82,11.118l-.708-.721a45.9,45.9,0,0,0-9.322-7.3,5.683,5.683,0,0,1,4.463-2.172.671.671,0,0,1,.088,0,.7.7,0,0,0,.655-.281.732.732,0,0,0,.085-.718,7.112,7.112,0,0,0-12.917-.536.714.714,0,0,0-.029.106,44.939,44.939,0,0,0-7.292-1.96.714.714,0,0,0,.025-.207c0-.041,0-.086,0-.131a6.185,6.185,0,0,1,1.25-3.77.73.73,0,0,0-.132-1.014,16.022,16.022,0,0,0-13.955-2.818A16.333,16.333,0,0,0,21.463,44.99a.726.726,0,0,0-.007.535A45.252,45.252,0,0,0,4.7,56.349l-3.145,3.2A2.9,2.9,0,0,0,.749,61.7c.014.1.021.2.035.281l0,.015c-.018-.1-.028-.2-.036-.3a.729.729,0,0,1,.2-.577l.276-.281a51.928,51.928,0,0,1,5.821-5.1L7,55.791a3.832,3.832,0,0,0-1.063,2.343c-.007.108-.014.216-.014.324a3.812,3.812,0,0,0,.128.932c-1.417.948-2.805,1.965-4.126,3.041a.7.7,0,0,1-.681.113A.717.717,0,0,1,.8,62.014a2.866,2.866,0,0,0,.761,1.523L4.7,66.746a45.388,45.388,0,0,0,17.81,11.22.733.733,0,0,0-.039.314,7.017,7.017,0,0,0,6.942,6.339,6.807,6.807,0,0,0,3.734-1.11.727.727,0,0,0-.053-1.245,5.6,5.6,0,0,1-2.29-2.335,45.032,45.032,0,0,0,28-5.182.707.707,0,0,0,.358.33,6.964,6.964,0,0,0,2.589.5,6.854,6.854,0,0,0,3.73-1.1.727.727,0,0,0-.052-1.247,5.518,5.518,0,0,1-1.814-1.57,45.688,45.688,0,0,0,5.71-4.919l.708-.721a15.973,15.973,0,0,0,15.323,11.76,15.509,15.509,0,0,0,4.287-.6.725.725,0,0,0,0-1.389,14.811,14.811,0,0,1,.2-28.45ZM11.312,56.835c.014.014.029.028.043.043a2.338,2.338,0,0,1,.3.419c.013.024.026.048.038.072a2.369,2.369,0,0,1,.188.479c.006.023.009.046.015.072a2.373,2.373,0,0,1-.579,2.175A2.278,2.278,0,0,1,9.2,60.77c-.066-.014-.126-.039-.19-.058a2.3,2.3,0,0,1-.23-.072,2.241,2.241,0,0,1-.248-.131c-.043-.025-.089-.045-.13-.072a2.308,2.308,0,0,1-.274-.216c-.018-.016-.037-.029-.054-.045a2.347,2.347,0,0,1-.268-.31L7.8,59.857a2.381,2.381,0,0,1-.439-1.226c0-.053-.016-.1-.016-.159,0-.079.007-.151.014-.245a2.363,2.363,0,0,1,.623-1.377.407.407,0,0,1,.057-.05,1.974,1.974,0,0,1,.574-.418A2.282,2.282,0,0,1,10.9,56.5h0A2.271,2.271,0,0,1,11.312,56.835Zm13.574,5.48a.715.715,0,0,1-.708-.721,6.9,6.9,0,0,1,6.828-6.95.715.715,0,0,1,.708.721,6.9,6.9,0,0,1-6.829,6.954Zm48.4-.969a2.741,2.741,0,0,1-.186,1.229.713.713,0,0,1-.481.428.7.7,0,0,1-.624-.14,54.972,54.972,0,0,0-59.7-7.066,3.6,3.6,0,0,0-1.072-.768,3.643,3.643,0,0,0-3.244.05c-.027.013-.05.032-.077.046a50.009,50.009,0,0,1,65.173,5.7.728.728,0,0,1,.208.51Z" transform="translate(-0.746 -35)" fill="url(#linear-gradient)"/>
</svg>
