<svg id="Layer_13" xmlns="http://www.w3.org/2000/svg" xmlns:xlink="http://www.w3.org/1999/xlink" width="75.93" height="67.399" viewBox="0 0 75.93 67.399">
  <defs>
    <linearGradient id="linear-gradient" x1="-0.383" y1="1.338" x2="1.075" y2="0.34" gradientUnits="objectBoundingBox">
      <stop offset="0" stop-color="#1bdfa3"/>
      <stop offset="1" stop-color="#fff"/>
    </linearGradient>
  </defs>
  <path id="Path_6" data-name="Path 6" d="M37.372,40.255a19.342,19.342,0,0,0,6.71.108l-3.352,6.105Zm3.3,13.39L50.938,39.116a14.537,14.537,0,0,0,1.745.636A22.9,22.9,0,0,0,47.1,52.876v10.01a28.256,28.256,0,0,1-12.158.022l-.009-10.175a22.974,22.974,0,0,0-5.578-12.983,14.76,14.76,0,0,0,1.417-.5Zm11.359-.72a20.143,20.143,0,0,1,6.1-12.538,17.774,17.774,0,0,0,11.5-4.7,8.786,8.786,0,0,0,2.8-5.79,9.209,9.209,0,0,0,6.552-8.631c-.154-4.962-4.892-7.836-10.724-8.819.208-4.358-4.695-7.8-9.8-8.773a21.792,21.792,0,0,0-6.244-.244c-6.1-4.583-16.284-4.576-22.385.005a21.856,21.856,0,0,0-6.237.232c-5.118.976-10.02,4.421-9.8,8.78-5.836.983-10.572,3.858-10.726,8.819A9.209,9.209,0,0,0,9.608,29.9a8.789,8.789,0,0,0,2.8,5.79,17.775,17.775,0,0,0,11.5,4.7,20.139,20.139,0,0,1,6.1,12.538V65.643c8.443,2.377,13.565,2.3,22.021.028V52.925Zm-1.567-45.4A20.753,20.753,0,0,1,57.274,7.4c2.835.542,6.54,2.665,6.03,5.237l-.59,2.945L65.1,15.9c4.061.55,8.842,1.5,8.965,5.457.081,2.708-1.647,4.547-4.859,5.327l-1.78.433c.093,2.444.436,4.1-1.676,6.212A12.312,12.312,0,0,1,57.62,36.57c-3.454.075-5.089-1.2-7.5-2.67-7.55,3.711-9.872,4.084-18.206,0-2.415,1.468-4.049,2.743-7.5,2.668a12.319,12.319,0,0,1-8.132-3.237c-2.114-2.107-1.768-3.768-1.676-6.212l-1.78-.431c-3.212-.78-4.94-2.619-4.859-5.327.1-3.305,3.788-4.756,7.512-5.26l3.838-.519-.588-2.945c-.51-2.567,3.152-4.7,6.011-5.244a20.911,20.911,0,0,1,6.824.132l.893-.713a13.633,13.633,0,0,1,17.116,0Z" transform="translate(-3.052 -0.001)" fill-rule="evenodd" fill="url(#linear-gradient)"/>
</svg>
